<?xml version="1.0" standalone="no"?>
<!DOCTYPE svg PUBLIC "-//W3C//DTD SVG 20010904//EN"
 "http://www.w3.org/TR/2001/REC-SVG-20010904/DTD/svg10.dtd">
<svg version="1.0" xmlns="http://www.w3.org/2000/svg"
 width="400.000000pt" height="400.000000pt" viewBox="0 0 400.000000 400.000000"
 preserveAspectRatio="xMidYMid meet">

<g transform="translate(0.000000,400.000000) scale(0.100000,-0.100000)"
fill="#000000" stroke="none">
<path d="M660 3530 c-116 -25 -238 -127 -281 -237 -18 -45 -23 -78 -24 -149 0
-84 2 -95 38 -166 43 -88 102 -146 187 -187 48 -23 68 -26 160 -26 93 0 112 3
161 26 256 120 307 450 99 642 -91 84 -221 121 -340 97z m221 -122 c102 -61
154 -149 153 -264 0 -117 -57 -208 -167 -266 -34 -18 -58 -23 -127 -23 -76 0
-91 3 -139 30 -140 77 -196 247 -128 388 32 65 100 129 160 151 67 25 192 16
248 -16z"/>
<path d="M366 2604 c-14 -14 -16 -124 -16 -1063 0 -1002 1 -1049 18 -1064 17
-15 57 -17 375 -17 310 0 358 2 371 16 14 14 16 124 16 1064 0 940 -2 1050
-16 1064 -13 14 -61 16 -374 16 -313 0 -361 -2 -374 -16z m672 -1061 l2 -983
-300 0 -300 0 0 978 c0 538 3 982 7 985 4 4 137 6 297 5 l291 -3 3 -982z"/>
<path d="M1512 2608 c-9 -9 -12 -260 -12 -1070 0 -1035 0 -1058 19 -1068 13
-6 144 -10 359 -10 312 0 340 1 355 18 14 15 16 84 19 617 3 589 4 601 26 666
25 76 84 149 142 179 86 44 251 46 331 4 43 -22 95 -90 114 -149 28 -91 34
-226 35 -782 0 -516 1 -533 19 -543 13 -6 144 -10 359 -10 316 0 340 1 355 18
15 17 17 76 17 638 0 349 -5 667 -10 729 -33 345 -151 565 -366 677 -85 44
-151 65 -274 83 -298 46 -567 -24 -742 -193 l-38 -36 0 110 c0 72 -4 114 -12
122 -17 17 -679 17 -696 0z m618 -227 c0 -159 6 -181 51 -181 20 0 22 2 89 87
137 178 383 264 664 234 308 -34 486 -168 565 -425 51 -166 54 -208 58 -893
l5 -643 -285 0 -286 0 -4 583 c-3 518 -5 589 -21 641 -55 187 -154 271 -336
283 -191 13 -335 -59 -409 -205 -58 -114 -61 -155 -61 -757 l0 -545 -285 0
-285 0 0 985 0 985 270 0 270 0 0 -149z"/>
</g>
</svg>
